<svg width="427" height="438" viewBox="0 0 427 438" fill="none" xmlns="http://www.w3.org/2000/svg">
<path d="M427 262.757L350.513 186.5L426.922 110.243L403.627 87L304 186.5L403.705 286L427 262.757Z" fill="#E6E6E6"/>
<path d="M427 247.757L350.513 171.5L426.922 95.2426L403.627 72L304 171.5L403.705 271L427 247.757Z" fill="#882FAA"/>
<path d="M129.305 413.067L143.399 416.474L163.248 363.735L142.447 358.706L129.305 413.067Z" fill="#A0616A"/>
<path d="M122.632 425.723L126.96 407.821L154.534 414.487C159.175 415.614 163.179 418.536 165.667 422.612C168.156 426.688 168.927 431.584 167.81 436.227L167.714 436.621L122.632 425.723Z" fill="#2F2E41"/>
<path d="M191.696 422.668L206.196 422.667L213.093 366.74L191.694 366.741L191.696 422.668Z" fill="#A0616A"/>
<path d="M188.183 418.12L216.552 418.119H216.553C221.33 418.119 225.911 420.016 229.289 423.394C232.667 426.772 234.565 431.353 234.565 436.13V436.535L188.184 436.537L188.183 418.12Z" fill="#2F2E41"/>
<path d="M188.294 403.316L190.677 316.308L187.466 281.027L181.201 308.178L153.821 397.463L130.218 391.252L157.554 294.982L151.617 233.234L168.674 222.268L168.905 222.31L227.183 233.052L213.105 400.835L188.294 403.316Z" fill="#2F2E41"/>
<path d="M211.359 245.166C206.665 245.166 201.177 243.654 195.067 239.341C175.516 225.543 152.204 240.386 151.971 240.536L151.024 241.152L151.057 240.024C151.081 239.22 153.422 159.312 153.422 133.599C153.422 107.034 170.754 87.637 176.067 82.3253C181.281 77.1106 185.668 77.2261 191.221 77.3704C192.178 77.3947 193.176 77.4212 194.225 77.4212C201.483 77.4212 208.539 84.3938 208.836 84.6906L208.977 84.8327L209.004 85.0314L229.142 236.663L228.988 236.858C228.895 236.977 222.282 245.166 211.359 245.166Z" fill="#CCCCCC"/>
<path d="M222.796 53.3547C230.491 39.2779 225.318 21.6283 211.241 13.9332C197.164 6.23811 179.514 11.4115 171.819 25.4883C164.124 39.5652 169.298 57.2148 183.374 64.9099C197.451 72.605 215.101 67.4315 222.796 53.3547Z" fill="#A0616A"/>
<path d="M241.775 269.445C240.401 268.38 239.277 267.026 238.482 265.48C237.688 263.933 237.242 262.231 237.176 260.494C237.11 258.757 237.426 257.026 238.101 255.424C238.777 253.822 239.795 252.387 241.085 251.221L224.589 212.311L246.188 216.286L258.542 252.627C260.357 254.923 261.267 257.806 261.098 260.728C260.93 263.651 259.695 266.41 257.629 268.483C255.562 270.556 252.807 271.799 249.885 271.976C246.963 272.153 244.077 271.253 241.775 269.445V269.445Z" fill="#A0616A"/>
<path d="M237.103 247.295L207.295 186.489L194.225 140.723L194.236 100.965C194.265 100.808 197.338 85.3432 208.726 86.4127C219.052 87.4129 224.614 92.4624 227.323 103.297C229.624 112.501 226.477 139.807 226.172 142.384C228.17 147.121 258.148 218.548 253.185 227.149C253 227.484 252.729 227.765 252.401 227.962L257.713 239.177L237.103 247.295Z" fill="#CCCCCC"/>
<path d="M193.593 50.3653C197.076 50.8184 199.702 47.2556 200.921 43.9622C202.139 40.6689 203.067 36.8347 206.095 35.0556C210.231 32.6252 215.523 35.5484 220.253 34.7465C225.594 33.8409 229.067 28.1799 229.339 22.769C229.612 17.3581 227.458 12.1539 225.346 7.16504L224.608 13.365C224.707 11.2637 224.264 9.17222 223.324 7.29062C222.383 5.40902 220.975 3.80025 219.235 2.61819L220.186 11.7157C219.984 10.4606 219.535 9.25775 218.867 8.17625C218.199 7.09476 217.323 6.15589 216.291 5.41354C215.259 4.6712 214.091 4.13999 212.853 3.8504C211.615 3.56081 210.332 3.51854 209.077 3.72601L209.227 9.14667C203.058 8.41305 196.834 7.67839 190.646 8.2373C184.459 8.79621 178.228 10.754 173.538 14.8291C166.523 20.9248 163.961 30.9622 164.821 40.2159C165.681 49.4697 169.501 58.1628 173.482 66.5605C174.484 68.6734 175.869 71.0576 178.192 71.3268C180.279 71.5686 182.189 69.8241 182.837 67.8258C183.337 65.7754 183.318 63.6327 182.781 61.5918C182.194 58.4727 181.454 55.2845 182.006 52.159C182.558 49.0336 184.806 45.945 187.957 45.5619C191.108 45.1789 194.332 48.7803 192.817 51.5693L193.593 50.3653Z" fill="#2F2E41"/>
<path d="M382 437.364H1C0.734784 437.364 0.480429 437.258 0.292892 437.071C0.105356 436.883 0 436.629 0 436.364C0 436.098 0.105356 435.844 0.292892 435.656C0.480429 435.469 0.734784 435.364 1 435.364H382C382.265 435.364 382.52 435.469 382.707 435.656C382.895 435.844 383 436.098 383 436.364C383 436.629 382.895 436.883 382.707 437.071C382.52 437.258 382.265 437.364 382 437.364Z" fill="#3F3D56"/>
</svg>
