<svg width="404" height="412" viewBox="0 0 404 412" fill="none" xmlns="http://www.w3.org/2000/svg">
<path d="M0 278.881L76.4091 202.624L0 126.366L23.2955 103.124L123 202.624L23.2955 302.124L0 278.881Z" fill="#E6E6E6"/>
<path d="M0 263.881L76.4091 187.624L0 111.366L23.2955 88.1236L123 187.624L23.2955 287.124L0 263.881Z" fill="#882FAA"/>
<path d="M276.591 240.076C275.622 238.971 274.906 237.667 274.495 236.256C274.085 234.844 273.988 233.36 274.213 231.907C274.438 230.454 274.979 229.068 275.797 227.847C276.615 226.626 277.692 225.599 278.95 224.839L271.516 189.886L288.806 196.66L293.214 228.813C294.352 231.012 294.643 233.551 294.033 235.95C293.423 238.348 291.955 240.44 289.906 241.828C287.857 243.217 285.369 243.805 282.916 243.482C280.462 243.159 278.211 241.948 276.591 240.077V240.076Z" fill="#FFB8B8"/>
<path d="M274.628 212.804L274.535 212.461C265.188 177.89 255.526 142.153 243.731 103.242L243.653 102.987L243.914 102.835C250.488 98.9984 260.37 99.2539 266.9 103.429C269.855 105.332 272.154 108.098 273.486 111.352C274.817 114.606 275.117 118.19 274.343 121.62L282.946 166.477C286.444 181.14 290.064 196.318 293.524 211.283L293.622 211.707L293.086 211.742C286.787 212.142 280.279 212.556 275.065 212.785L274.628 212.804Z" fill="#CCCCCC"/>
<path d="M195.194 398.868H182.934L177.1 351.581H195.194V398.868Z" fill="#FFB8B8"/>
<path d="M198.321 410.752H158.79V410.252C158.795 406.173 160.418 402.262 163.302 399.377C166.187 396.492 170.098 394.87 174.177 394.865H198.321L198.321 410.752Z" fill="#2F2E41"/>
<path d="M310.719 388.755L299.037 392.477L279.121 349.193L296.362 343.699L310.719 388.755Z" fill="#FFB8B8"/>
<path d="M279.641 411.13L279.49 410.653C278.256 406.765 278.614 402.546 280.487 398.922C282.359 395.298 285.593 392.564 289.479 391.321L312.483 383.991L317.306 399.128L279.641 411.13Z" fill="#2F2E41"/>
<path d="M248.667 71.561C262.232 71.561 273.228 60.5646 273.228 47C273.228 33.4353 262.232 22.4389 248.667 22.4389C235.102 22.4389 224.106 33.4353 224.106 47C224.106 60.5646 235.102 71.561 248.667 71.561Z" fill="#FFB8B8"/>
<path d="M259.694 42.4479C259.834 32.5416 255.688 22.7306 249.278 17.798C246.257 15.4044 242.499 14.1333 238.645 14.2014C234.791 14.2695 231.08 15.6726 228.146 18.1714C221.835 23.3289 217.883 33.2829 218.217 43.1809C232.358 43.2212 246.499 43.2614 259.694 42.4479Z" fill="#2F2E41"/>
<path d="M202.193 383.646L201.702 383.599C191.036 382.552 180.007 381.471 169.584 381.347L169.017 381.34L169.094 380.778C171.564 362.892 172.611 344.299 173.623 326.316C174.623 308.56 175.656 290.201 178.064 272.763C179.083 268.094 180.075 263.48 181.065 258.883C189.25 220.84 196.982 184.906 212.941 149.336L213.092 149L213.458 149.044C228.432 150.856 242.821 156.32 253.973 164.428L254.189 164.584L254.179 164.851C253.963 170.376 253.741 176.088 254.07 181.29C259.132 188.323 262.486 196.439 263.866 204.993C265.247 213.547 264.616 222.305 262.024 230.574C266.415 245.249 270.955 260.419 275.587 275.383C286.836 306.222 298.475 338.135 310.407 370.484L310.603 371.015L310.052 371.143C301.468 373.159 292.612 375.237 283.876 376.044L283.546 376.074L283.389 375.782C261.11 334.322 242.992 290.757 229.3 245.726C226.319 254.818 222.024 263.025 217.863 270.975C213.884 278.205 210.382 285.689 207.381 293.377C205.539 308.498 205.051 324.881 204.579 340.724C204.132 355.703 203.711 369.851 202.248 383.155L202.193 383.646Z" fill="#2F2E41"/>
<path d="M240.282 18.2523C250.928 15.9586 262.704 18.1408 271.065 25.3237C279.425 32.5066 283.671 44.9328 280.236 55.5898C276.802 66.2468 265.14 73.7451 254.597 70.993C257.617 62.4807 254.218 52.0295 246.834 47.1263C238.078 41.3116 235.668 27.4293 240.282 18.2523Z" fill="#2F2E41"/>
<path d="M253.207 165.496L252.818 165.318C239.237 159.122 225.92 154.368 213.442 150.03L213.06 149.947L213.059 148.838L213.307 148.924C213.359 148.809 213.418 148.678 213.477 148.548C213.648 148.171 213.764 147.914 213.863 147.744L213.86 147.743C214.9 145.623 215.727 143.575 216.527 141.594C217.352 139.549 218.204 137.438 219.304 135.205C216.636 132.53 214.81 129.132 214.05 125.431C213.29 121.729 213.63 117.887 215.028 114.376C217.784 107.844 224.812 102.756 232.196 101.912C234.902 94.4629 240.931 78.8115 240.931 78.8115C240.931 78.8115 253.609 78.4633 258.708 77.8164L258.794 77.8056L258.878 77.8242C270.009 80.2632 279.302 90.7959 281.476 103.438C283.311 114.108 280.524 126.312 273.629 137.804C270.091 143.423 266.179 148.798 261.919 153.893C258.813 157.776 255.879 161.444 253.443 165.139L253.207 165.496Z" fill="#CCCCCC"/>
<path d="M277.791 32.807C270.338 31.6946 264.487 24.0765 265.334 16.5893C266.181 9.10198 273.587 2.98385 281.099 3.56461C288.612 4.14537 294.989 11.329 294.676 18.8575C294.362 26.386 287.306 34.2273 277.791 32.807Z" fill="#2F2E41"/>
<path d="M276.627 27.9521C269.175 26.8397 263.324 19.2216 264.171 11.7344C264.54 9.1877 265.549 6.77602 267.102 4.72417C268.655 2.67231 270.702 1.04708 273.053 0C267.043 1.31543 261.87 6.5525 261.171 12.7344C260.324 20.2216 266.175 27.8397 273.627 28.9521C276.404 29.3879 279.248 28.9902 281.799 27.8092C280.098 28.1664 278.346 28.2148 276.627 27.9521V27.9521Z" fill="#2F2E41"/>
<path d="M132.069 159.93C132.788 158.648 133.779 157.539 134.973 156.681C136.167 155.823 137.534 155.238 138.979 154.966C140.424 154.694 141.911 154.742 143.335 155.106C144.759 155.471 146.086 156.144 147.222 157.077L177.701 138.422L177.074 156.981L148.227 171.851C146.533 173.655 144.236 174.776 141.771 175C139.306 175.224 136.845 174.537 134.853 173.067C132.861 171.598 131.478 169.449 130.965 167.028C130.451 164.606 130.844 162.081 132.069 159.93V159.93Z" fill="#FFB8B8"/>
<path d="M157.128 148.992L157.421 148.79C186.903 128.459 217.379 107.442 250.136 83.3557L250.351 83.1978L250.581 83.3925C256.389 88.3132 259.44 97.7157 257.68 105.263C256.87 108.684 255.028 111.774 252.403 114.113C249.779 116.452 246.499 117.929 243.008 118.342L203.58 141.4C190.92 149.583 177.816 158.053 164.859 166.301L164.491 166.535L164.281 166.041C161.804 160.236 159.245 154.237 157.292 149.397L157.128 148.992Z" fill="#CCCCCC"/>
<path d="M421 411.869H40C39.7348 411.869 39.4804 411.764 39.2929 411.576C39.1054 411.389 39 411.134 39 410.869C39 410.604 39.1054 410.349 39.2929 410.162C39.4804 409.974 39.7348 409.869 40 409.869H421C421.265 409.869 421.52 409.974 421.707 410.162C421.895 410.349 422 410.604 422 410.869C422 411.134 421.895 411.389 421.707 411.576C421.52 411.764 421.265 411.869 421 411.869Z" fill="#3F3D56"/>
</svg>
